<svg data-v-423bf9ae="" xmlns="http://www.w3.org/2000/svg" viewBox="0 0 128.20186458516147 60" class="font"><!----><!----><!----><g data-v-423bf9ae="" id="b0811b3a-3589-4a3f-80a5-ea2d90ccbc3b" fill="white" transform="matrix(2.9397354457897125,0,0,2.9397354457897125,0.5291534816624264,-2.3811851816567398)"><path d="M7.77 9.07L7.77 9.07L7.77 9.07Q7.77 10.56 6.54 11.56L6.54 11.56L6.54 11.56Q5.32 12.56 3.42 12.56L3.42 12.56L3.42 12.56Q2.37 12.56 1.82 12.25L1.82 12.25L1.82 12.25Q1.76 12.22 1.69 12.22L1.69 12.22L1.69 12.22Q1.62 12.22 1.18 12.38L1.18 12.38L1.18 12.38Q0.73 12.53 0.27 12.53L0.27 12.53L0.27 12.53Q-0.18 12.53-0.18 12.26L-0.18 12.26L-0.18 12.26Q-0.18 11.90 0.70 10.37L0.70 10.37L0.70 10.37Q1.58 8.83 2.27 8.30L2.27 8.30L2.27 8.30Q2.56 8.08 2.84 8.08L2.84 8.08L2.84 8.08Q3.12 8.08 3.12 8.23L3.12 8.23L3.12 8.23Q3.12 8.26 2.93 8.58L2.93 8.58L2.93 8.58Q2.74 8.89 2.56 9.41L2.56 9.41L2.56 9.41Q2.37 9.93 2.37 10.30L2.37 10.30L2.37 10.30Q2.37 10.67 2.44 10.92L2.44 10.92L2.44 10.92Q2.52 11.17 2.83 11.43L2.83 11.43L2.83 11.43Q3.15 11.69 3.60 11.69L3.60 11.69L3.60 11.69Q4.06 11.69 4.46 11.58L4.46 11.58L4.46 11.58Q4.86 11.47 5.25 11.23L5.25 11.23L5.25 11.23Q5.64 10.99 5.89 10.53L5.89 10.53L5.89 10.53Q6.15 10.07 6.15 9.46L6.15 9.46L6.15 9.46Q6.15 8.85 5.77 8.22L5.77 8.22L5.77 8.22Q5.39 7.59 4.94 7.15L4.94 7.15L4.94 7.15Q4.49 6.71 4.12 6.14L4.12 6.14L4.12 6.14Q3.74 5.57 3.74 5.03L3.74 5.03L3.74 5.03Q3.74 4.49 4.03 4.03L4.03 4.03L4.03 4.03Q4.31 3.57 4.74 3.30L4.74 3.30L4.74 3.30Q5.17 3.02 5.71 2.84L5.71 2.84L5.71 2.84Q6.64 2.53 7.35 2.53L7.35 2.53L7.35 2.53Q8.06 2.53 8.41 2.60L8.41 2.60L8.41 2.60Q8.75 2.66 8.93 2.72L8.93 2.72L8.93 2.72Q9.10 2.77 9.14 2.77L9.14 2.77L9.14 2.77Q9.18 2.77 9.25 2.73L9.25 2.73L9.25 2.73Q9.67 2.49 10.16 2.49L10.16 2.49L10.16 2.49Q10.65 2.49 10.65 2.73L10.65 2.73L10.65 2.73Q10.65 3.12 9.72 4.49L9.72 4.49L9.72 4.49Q8.79 5.85 8.33 5.85L8.33 5.85L8.33 5.85Q7.95 5.85 7.95 5.68L7.95 5.68L7.95 5.68Q7.95 5.66 8.05 5.49L8.05 5.49L8.05 5.49Q8.36 4.93 8.36 4.21L8.36 4.21L8.36 4.21Q8.36 3.82 8.02 3.61L8.02 3.61L8.02 3.61Q7.69 3.39 7.33 3.39L7.33 3.39L7.33 3.39Q6.97 3.39 6.60 3.50L6.60 3.50L6.60 3.50Q6.23 3.61 5.86 3.95L5.86 3.95L5.86 3.95Q5.49 4.28 5.49 4.75L5.49 4.75L5.49 4.75Q5.49 5.22 5.84 5.73L5.84 5.73L5.84 5.73Q6.20 6.24 6.63 6.67L6.63 6.67L6.63 6.67Q7.06 7.10 7.41 7.75L7.41 7.75L7.41 7.75Q7.77 8.40 7.77 9.07ZM8.05 13.06L8.05 13.06L8.05 13.06Q7.85 13.06 7.62 12.82L7.62 12.82L7.62 12.82Q7.38 12.57 7.38 12.22L7.38 12.22L7.38 12.22Q7.38 12.03 8.30 10.24L8.30 10.24L8.30 10.24Q9.21 8.46 9.24 7.83L9.24 7.83L9.24 7.83Q9.24 7.63 9.49 7.46L9.49 7.46L9.49 7.46Q9.94 7.20 10.82 7.20L10.82 7.20L10.82 7.20Q10.99 7.20 11.18 7.26L11.18 7.26L11.18 7.26Q11.37 7.32 11.37 7.43L11.37 7.43L11.37 7.43Q11.37 7.49 11.33 7.53L11.33 7.53L11.33 7.53Q10.79 8.20 9.77 9.95L9.77 9.95L9.77 9.95Q8.75 11.70 8.23 12.80L8.23 12.80L8.23 12.80Q8.16 13.06 8.05 13.06ZM11.12 6.41L11.12 6.41L11.12 6.41Q10.50 6.41 10.47 5.92L10.47 5.92L10.47 5.91L10.47 5.91Q10.47 5.49 10.89 5.22L10.89 5.22L10.89 5.22Q11.30 4.96 11.70 4.96L11.70 4.96L11.70 4.96Q12.32 4.96 12.35 5.45L12.35 5.45L12.35 5.45Q12.35 5.87 11.94 6.14L11.94 6.14L11.94 6.14Q11.54 6.41 11.12 6.41ZM8.48 19.39L8.48 19.39L8.48 19.39Q9.09 19.39 10.38 17.45L10.38 17.45L10.38 17.45Q11.68 15.51 12.68 13.58L12.68 13.58L12.68 13.58Q13.69 11.65 13.69 11.45L13.69 11.45L13.69 11.45Q13.69 11.24 13.58 11.24L13.58 11.24L13.58 11.24Q13.47 11.24 13.20 11.46L13.20 11.46L13.20 11.46Q12.94 11.68 12.63 11.94L12.63 11.94L12.63 11.94Q12.33 12.21 11.87 12.43L11.87 12.43L11.87 12.43Q11.40 12.64 10.93 12.64L10.93 12.64L10.93 12.64Q10.36 12.64 10.36 11.79L10.36 11.79L10.36 11.79Q10.36 11.10 10.74 10.24L10.74 10.24L10.74 10.24Q11.12 9.38 11.77 8.58L11.77 8.58L11.77 8.58Q12.43 7.77 13.50 7.22L13.50 7.22L13.50 7.22Q14.56 6.68 15.78 6.68L15.78 6.68L15.78 6.68Q16.09 6.68 16.45 6.79L16.45 6.79L16.45 6.79Q17.18 7.01 17.18 7.60L17.18 7.60L17.18 7.60Q17.18 8.02 16.94 8.02L16.94 8.02L16.94 8.02Q16.87 8.02 16.70 7.92L16.70 7.92L16.70 7.92Q16.20 7.59 15.15 7.59L15.15 7.59L15.15 7.59Q14.10 7.59 13.11 8.63L13.11 8.63L13.11 8.63Q12.12 9.67 12.12 10.67L12.12 10.67L12.12 10.67Q12.12 11.02 12.42 11.02L12.42 11.02L12.42 11.02Q12.87 11.02 13.66 10.38L13.66 10.38L13.66 10.38Q14.45 9.74 15.23 8.50L15.23 8.50L15.23 8.50Q15.27 8.30 15.88 8.30L15.88 8.30L15.88 8.30Q16.48 8.30 16.48 8.51L16.48 8.51L16.48 8.51Q16.48 8.67 15.50 10.52L15.50 10.52L15.50 10.52Q14.53 12.38 13.86 13.57L13.86 13.57L13.86 13.57Q13.19 14.77 12.24 16.23L12.24 16.23L12.24 16.23Q11.30 17.68 10.46 18.73L10.46 18.73L10.46 18.73Q9.62 19.78 8.71 20.50L8.71 20.50L8.71 20.50Q7.80 21.22 7.08 21.22L7.08 21.22L7.08 21.22Q6.50 21.22 6.50 20.24L6.50 20.24L6.50 20.24Q6.50 19.26 7.07 18.07L7.07 18.07L7.07 18.07Q7.64 16.87 8.45 15.87L8.45 15.87L8.45 15.87Q9.25 14.87 10.16 14.17L10.16 14.17L10.16 14.17Q11.07 13.47 11.69 13.47L11.69 13.47L11.73 13.47L11.73 13.47Q11.90 13.47 11.90 13.57L11.90 13.57L11.90 13.57Q11.90 13.66 11.73 13.75L11.73 13.75L11.73 13.75Q11.20 14.01 10.38 14.93L10.38 14.93L10.38 14.93Q9.56 15.85 8.90 17.04L8.90 17.04L8.90 17.04Q8.23 18.23 8.23 19.04L8.23 19.04L8.23 19.05L8.23 19.05Q8.23 19.39 8.48 19.39ZM19.88 12.95L19.88 12.95L19.88 12.95Q19.49 12.95 19.49 12.77L19.49 12.77L19.52 12.68L19.52 12.68Q20.36 11.42 20.96 10.26L20.96 10.26L20.96 10.26Q21.56 9.09 21.56 8.74L21.56 8.74L21.56 8.74Q21.56 8.62 21.50 8.56L21.50 8.56L21.50 8.56Q21.45 8.50 21.34 8.48L21.34 8.48L21.34 8.48Q20.79 8.48 19.87 9.18L19.87 9.18L19.87 9.18Q18.96 9.88 18.26 10.63L18.26 10.63L18.26 10.63Q17.57 11.37 17.23 11.84L17.23 11.84L17.23 11.84Q16.90 12.31 16.23 12.31L16.23 12.31L16.23 12.31Q15.86 12.31 15.86 12.12L15.86 12.12L15.86 12.12Q15.86 11.76 17.23 9.55L17.23 9.55L17.23 9.55Q18.61 7.35 19.05 7.18L19.05 7.18L19.05 7.18Q19.29 7.04 19.66 7.04L19.66 7.04L19.66 7.04Q20.03 7.04 20.03 7.19L20.03 7.19L20.03 7.19Q20.03 7.34 19.70 7.83L19.70 7.83L19.70 7.83Q19.36 8.32 19.36 8.46L19.36 8.46L19.36 8.46Q19.39 8.57 19.48 8.57L19.48 8.57L19.48 8.57Q19.57 8.57 19.64 8.51L19.64 8.51L19.64 8.51Q21.71 6.90 22.95 6.90L22.95 6.90L22.95 6.90Q23.46 6.90 23.46 7.50L23.46 7.50L23.46 7.50Q23.46 7.90 22.88 9.20L22.88 9.20L22.88 9.20Q22.30 10.50 21.41 11.73L21.41 11.73L21.41 11.73Q20.52 12.95 19.88 12.95ZM25.68 11.86L25.68 11.86L25.70 11.56L25.70 11.56Q25.70 11.45 25.62 11.45L25.62 11.45L25.62 11.45Q25.49 11.45 25.11 11.82L25.11 11.82L25.11 11.82Q24.72 12.18 24.14 12.55L24.14 12.55L24.14 12.55Q23.56 12.92 22.98 12.92L22.98 12.92L22.98 12.92Q22.40 12.92 22.40 12.07L22.40 12.07L22.40 12.07Q22.40 11.00 23.32 9.62L23.32 9.62L23.32 9.62Q23.80 8.92 24.42 8.32L24.42 8.32L24.42 8.32Q25.05 7.73 25.94 7.34L25.94 7.34L25.94 7.34Q26.84 6.96 27.82 6.96L27.82 6.96L27.82 6.96Q28.34 6.96 28.70 7.23L28.70 7.23L28.70 7.23Q29.06 7.50 29.06 7.90L29.06 7.90L29.06 7.90Q29.06 8.30 28.83 8.30L28.83 8.30L28.83 8.30Q28.70 8.30 28.49 8.15L28.49 8.15L28.49 8.15Q28.10 7.88 27.26 7.88L27.26 7.88L27.26 7.88Q26.15 7.88 25.16 8.88L25.16 8.88L25.16 8.88Q24.18 9.88 24.18 10.86L24.18 10.86L24.18 10.86Q24.18 10.99 24.25 11.10L24.25 11.10L24.25 11.10Q24.33 11.21 24.47 11.21L24.47 11.21L24.47 11.21Q24.89 11.21 25.55 10.63L25.55 10.63L25.55 10.63Q26.21 10.05 26.84 8.96L26.84 8.96L26.84 8.96Q26.88 8.83 27.15 8.72L27.15 8.72L27.15 8.72Q27.41 8.61 27.78 8.61L27.78 8.61L27.78 8.61Q28.29 8.65 28.29 8.83L28.29 8.83L28.29 8.83Q28.29 8.85 28.19 9.01L28.19 9.01L28.19 9.01Q28.08 9.17 27.82 9.59L27.82 9.59L27.82 9.59Q27.55 10.01 27.07 10.97L27.07 10.97L27.07 10.97Q26.59 11.93 26.50 12.49L26.50 12.49L26.50 12.49Q26.49 12.66 26.36 12.66L26.36 12.66L26.36 12.66Q25.68 12.66 25.68 11.86ZM35.27 3.40L35.27 3.40L35.95 3.37L35.95 3.37Q36.09 3.37 36.09 3.43L36.09 3.43L36.09 3.43Q36.09 3.49 36.06 3.57L36.06 3.57L36.06 3.57Q36.04 3.65 35.95 3.78L35.95 3.78L35.95 3.78Q35.85 3.91 35.73 4.00L35.73 4.00L35.73 4.00Q35.39 4.27 34.89 4.27L34.89 4.27L34.89 4.27Q34.40 4.27 34.17 4.30L34.17 4.30L34.17 4.30Q33.94 4.33 33.77 4.44L33.77 4.44L33.77 4.44Q33.60 4.55 33.54 4.61L33.54 4.61L33.54 4.61Q33.49 4.66 33.35 4.89L33.35 4.89L33.35 4.89Q33.21 5.11 33.15 5.19L33.15 5.19L33.15 5.19Q32.41 6.23 30.75 9.10L30.75 9.10L30.75 9.10Q29.09 11.97 28.69 13.54L28.69 13.54L28.69 13.54Q28.64 13.68 28.43 13.68L28.43 13.68L28.43 13.68Q28.21 13.68 27.83 13.31L27.83 13.31L27.83 13.31Q27.45 12.95 27.45 12.57L27.45 12.57L27.45 12.57Q27.45 12.19 28.59 10.32L28.59 10.32L28.59 10.32Q29.74 8.44 30.88 6.63L30.88 6.63L30.88 6.63Q32.03 4.82 32.03 4.61L32.03 4.61L32.03 4.61Q32.03 4.41 31.86 4.36L31.86 4.36L31.86 4.36Q31.70 4.31 31.28 4.31L31.28 4.31L30.81 4.31L30.81 4.31Q30.63 4.31 30.63 4.14L30.63 4.14L30.63 4.14Q30.63 3.98 30.79 3.79L30.79 3.79L30.79 3.79Q30.95 3.60 31.28 3.46L31.28 3.46L31.28 3.46Q31.61 3.32 31.95 3.18L31.95 3.18L31.95 3.18Q32.30 3.04 32.85 2.55L32.85 2.55L32.85 2.55Q33.40 2.06 33.96 1.29L33.96 1.29L33.96 1.29Q34.31 0.81 35.17 0.81L35.17 0.81L35.17 0.81Q35.46 0.81 35.46 0.99L35.46 0.99L35.46 0.99Q35.46 1.11 34.83 2.02L34.83 2.02L34.83 2.02Q34.20 2.93 34.20 3.16L34.20 3.16L34.20 3.16Q34.20 3.39 34.62 3.39L34.62 3.39L34.62 3.39Q34.79 3.40 35.27 3.40ZM31.51 12.53L31.51 12.53L31.51 12.53Q31.19 12.38 30.99 11.98L30.99 11.98L30.99 11.98Q30.79 11.59 30.79 11.02L30.79 11.02L30.79 11.02Q30.79 10.12 31.37 9.14L31.37 9.14L31.37 9.14Q31.95 8.16 33.01 7.46L33.01 7.46L33.01 7.46Q34.06 6.76 35.24 6.76L35.24 6.76L35.24 6.76Q35.78 6.76 36.15 7.06L36.15 7.06L36.15 7.06Q36.51 7.35 36.51 7.64L36.51 7.64L36.51 7.64Q36.51 7.92 36.43 8.09L36.43 8.09L36.43 8.09Q36.34 8.26 36.34 8.32L36.34 8.32L36.34 8.32Q36.34 8.48 36.61 8.48L36.61 8.48L36.61 8.48Q36.88 8.48 37.02 8.41L37.02 8.41L37.02 8.41Q37.16 8.34 37.18 8.34L37.18 8.34L37.18 8.34Q37.30 8.34 37.30 8.63L37.30 8.63L37.30 8.63Q37.30 8.92 37.02 9.30L37.02 9.30L37.02 9.30Q36.74 9.69 36.33 9.87L36.33 9.87L36.33 9.87Q36.27 9.98 36.18 10.19L36.18 10.19L36.18 10.19Q36.08 10.39 35.71 10.89L35.71 10.89L35.71 10.89Q35.35 11.38 34.94 11.77L34.94 11.77L34.94 11.77Q34.52 12.15 33.84 12.47L33.84 12.47L33.84 12.47Q33.17 12.78 32.61 12.78L32.61 12.78L32.61 12.78Q32.05 12.78 31.51 12.53ZM34.64 10.12L34.64 10.12L34.64 10.12Q34.64 10.01 34.51 10.01L34.51 10.01L34.51 10.01Q34.33 10.01 34.10 10.09L34.10 10.09L34.10 10.09Q33.87 10.18 33.84 10.18L33.84 10.18L33.84 10.18Q33.75 10.18 33.75 10.05L33.75 10.05L33.75 10.05Q33.75 9.51 34.15 9.11L34.15 9.11L34.15 9.11Q34.30 8.95 34.59 8.83L34.59 8.83L34.59 8.83Q34.89 8.71 35.05 8.55L35.05 8.55L35.05 8.55Q35.21 8.39 35.21 7.99L35.21 7.99L35.21 7.99Q35.21 7.52 34.71 7.52L34.71 7.52L34.71 7.52Q33.81 7.52 33.00 8.79L33.00 8.79L33.00 8.79Q32.19 10.05 32.19 11.05L32.19 11.05L32.19 11.05Q32.19 11.38 32.42 11.62L32.42 11.62L32.42 11.62Q32.65 11.86 32.97 11.86L32.97 11.86L32.97 11.86Q33.70 11.86 34.17 11.25L34.17 11.25L34.17 11.25Q34.64 10.64 34.64 10.12ZM41.30 10.57L41.30 10.57Q41.03 10.57 40.89 10.30L40.89 10.30L40.89 10.30Q40.75 10.02 40.75 9.77L40.75 9.77L40.75 9.77Q40.75 9.51 40.92 9.17L40.92 9.17L40.92 9.17Q40.92 8.99 40.78 8.99L40.78 8.99L40.78 8.99Q40.24 8.99 39.54 9.64L39.54 9.64L39.54 9.64Q38.84 10.29 38.36 10.98L38.36 10.98L38.36 10.98Q37.88 11.68 37.49 12.38L37.49 12.38L37.49 12.38Q37.25 12.80 36.51 12.80L36.51 12.80L36.51 12.80Q36.13 12.80 36.13 12.63L36.13 12.63L36.13 12.63Q36.13 12.25 37.51 9.81L37.51 9.81L37.51 9.81Q38.89 7.36 39.34 7.20L39.34 7.20L39.34 7.20Q39.65 7.04 40.03 7.04L40.03 7.04L40.03 7.04Q40.42 7.04 40.42 7.20L40.42 7.20L40.42 7.20Q40.42 7.36 40.10 7.83L40.10 7.83L40.10 7.83Q39.77 8.29 39.77 8.41L39.77 8.41L39.77 8.41Q39.77 8.54 39.87 8.54L39.87 8.54L39.87 8.54Q39.93 8.54 40.18 8.37L40.18 8.37L40.18 8.37Q40.80 7.91 41.69 7.42L41.69 7.42L41.82 7.25L41.82 7.25Q42.15 6.83 42.79 6.83L42.79 6.83L42.79 6.83Q43.43 6.83 43.43 7.08L43.43 7.08L43.43 7.08Q43.40 7.15 43.29 7.31L43.29 7.31L43.29 7.31Q42.18 8.82 41.43 10.47L41.43 10.47L41.43 10.47Q41.37 10.57 41.30 10.57L41.30 10.57Z"></path></g><!----><!----></svg>