<svg viewBox="0 0 1024 1024" xmlns="http://www.w3.org/2000/svg" width="16" height="16" fill="#ffffff" ><path d="M186.659 742.993v57.007h-186.659v-57.007h186.659zM395.962 742.993v57.007h-186.659v-57.007h186.659zM605.265 742.993v57.007h-186.659v-57.007h186.659zM814.697 742.993v57.007h-186.659v-57.007h186.659zM1024 742.993v57.007h-186.659v-57.007h186.659zM186.659 668.833v57.007h-186.659v-57.007h186.659zM395.962 668.833v57.007h-186.659v-57.007h186.659zM605.265 668.833v57.007h-186.659v-57.007h186.659zM814.697 668.833v57.007h-186.659v-57.007h186.659zM1024 668.833v57.007h-186.659v-57.007h186.659zM186.659 594.802v57.007h-186.659v-57.007h186.659zM395.962 594.802v57.007h-186.659v-57.007h186.659zM605.265 594.802v57.007h-186.659v-57.007h186.659zM814.697 594.802v57.007h-186.659v-57.007h186.659zM1024 594.673v57.007h-186.659v-57.007h186.659zM186.659 520.641v57.007h-186.659v-57.007h186.659zM605.265 520.641v57.007h-186.659v-57.007h186.659zM814.697 520.641v57.007h-186.659v-57.007h186.659zM1024 520.641v57.007h-186.659v-57.007h186.659zM186.659 446.481v57.007h-186.659v-57.007h186.659zM605.265 446.481v57.007h-186.659v-57.007h186.659zM814.697 446.481v57.007h-186.659v-57.007h186.659zM1024 446.481v57.007h-186.659v-57.007h186.659zM605.265 372.321v57.007h-186.659v-57.007h186.659zM1024 372.321v57.007h-186.659v-57.007h186.659zM605.265 298.16v57.007h-186.659v-57.007h186.659zM1024 298.16v57.007h-186.659v-57.007h186.659zM1024 224v57.007h-186.659v-57.007h186.659z" fill="#ffffff"></path></svg>