<svg viewBox="0 0 1024 1024" xmlns="http://www.w3.org/2000/svg" width="16" height="16" fill="#ffffff" ><path d="M577.797 510.437l226.984 192.781v-382.453l-226.984 189.672zM15 684.562v164.797c0 37.312 31.094 68.406 68.406 68.406h164.797v-233.203h-233.203zM248.203 100l-233.203 233.203h233.203v-233.203zM248.203 333.203h-233.203v351.359h233.203v-351.359zM954.031 199.5l-149.25 121.265v382.453l149.25 124.375c21.766 15.547 55.969 0 55.969-27.984v-575.234c0-27.984-34.203-43.531-55.969-24.875zM577.797 510.437v174.125h-329.594v233.203h488.172c37.313 0 68.406-31.094 68.406-68.406v-146.141l-226.984-192.781zM736.375 100h-488.172v233.203h329.594v177.234l226.984-189.672v-152.359c0-37.312-31.093-68.406-68.406-68.406z" fill="#ffffff"></path></svg>