<svg viewBox="0 0 1024 1024" xmlns="http://www.w3.org/2000/svg" width="16" height="16" fill="#ffffff" ><path d="M572.604 192c94.641 0 171.363 76.722 171.363 171.363v373.943c0 34.625-28.069 62.694-62.694 62.694h-509.91c-94.641 0-171.363-76.722-171.363-171.363v-373.943c0-34.625 28.069-62.694 62.694-62.694h509.91zM1012.61 222.858c7.343 8.383 11.39 19.148 11.39 30.292v497.725c0 25.392-20.584 45.976-45.976 45.976-12.266 0-24.023-4.901-32.657-13.614l-133.515-134.736c-19.39-19.568-30.269-46.001-30.269-73.548v-163.48c0-30.113 12.992-58.762 35.644-78.603l130.505-114.304c19.101-16.73 48.147-14.808 64.877 4.293z" fill="#ffffff"></path></svg>